<svg width="351" height="60" viewBox="0 0 351 60" fill="none" xmlns="http://www.w3.org/2000/svg">
<path fill-rule="evenodd" clip-rule="evenodd" d="M29.044 0.334126C28.8034 0.498585 28.519 0.783714 28.3315 1.04597C27.9566 1.60796 27.2441 2.54464 27.0941 2.80689L26.9816 2.91929C26.9066 3.10662 26.6697 3.47235 26.397 3.81292C23.3954 8.05275 22.3448 9.14084 18.7053 12.9679C15.2159 16.6074 11.6112 20.1022 6.99886 23.7364C6.43605 24.1116 6.02472 24.4231 5.91076 24.5243C5.7968 24.6255 5.67678 24.708 5.57307 24.7869C5.39533 24.9223 4.67245 25.5 4.44746 25.6499C4.39121 25.6874 3.74914 26.1967 2.87159 26.7755C1.10812 27.9387 0.464014 28.2138 0.207627 28.7266C-0.280143 29.7021 0.0950646 30.4525 1.29573 31.2405C2.64647 32.1034 2.33085 31.8888 2.57143 32.0659L2.68399 32.141C3.01086 32.3815 3.78434 32.8819 4.49608 33.4124C5.29378 34.007 5.76227 34.415 6.12946 34.6901C6.33205 34.8419 6.14212 34.7154 6.43335 34.9052C6.6486 35.0454 6.71191 35.0949 7.02846 35.31C7.27566 35.5217 7.78551 35.9411 8.20192 36.2837L8.20205 36.2838L8.29464 36.36C10.9663 38.4727 13.8785 41.1546 17.0946 44.4185C20.1588 47.5305 22.3873 49.9342 23.1723 50.9715C23.4509 51.3384 24.1346 52.2239 24.6918 52.9197C26.0846 54.6655 27.1766 56.3297 27.8603 57.3923C28.4554 58.3158 28.8734 58.668 29.5487 58.9682C30.0925 59.2099 31.164 58.7201 31.5939 58.1065C31.7712 57.8535 31.9806 57.5455 32.0439 57.4696C32.1102 57.4033 32.3359 57.0347 32.6064 56.6449C32.6457 56.5882 32.7162 56.5154 32.7564 56.4576C33.0729 56.0021 33.5034 55.3871 33.7314 55.1088C33.897 54.9157 34.1516 54.5367 34.4438 54.1721C34.5537 54.0351 34.681 53.847 34.7813 53.7226C36.0982 52.0527 37.6268 50.0675 37.9687 49.7512C38.0062 49.6763 38.6437 48.9644 39.4312 48.1402C40.9253 46.445 45.5809 41.771 47.6434 39.9352C49.1636 38.4838 51.4307 36.6757 53.1182 35.2895C53.3102 35.1433 53.4932 35.0272 53.6807 34.9148C54.5431 34.2779 55.3119 33.6374 55.5224 33.4689L55.5227 33.4687L55.5614 33.4377C55.688 33.3365 56.0932 33.0708 56.0932 33.0708L56.4098 32.8178C57.0429 32.375 56.9431 32.4046 57.5055 31.9925C57.8567 31.7352 58.2315 31.4928 58.5555 31.2807C58.7805 31.1308 58.9747 30.9765 59.0805 30.906C59.9055 30.1567 60.1627 30.0398 59.9029 28.9142C59.7903 28.4264 58.9649 27.9011 57.8393 27.2258C56.526 26.3628 56.2634 26.1752 54.3498 24.7119C53.241 23.864 51.4232 22.5357 49.9975 21.26C49.2631 20.6275 48.4877 19.8743 48.1965 19.6466C47.7533 19.2797 43.7629 15.5005 43.2438 14.9565C43.1425 14.8553 42.6124 14.3252 42.0806 13.7559C41.8413 13.5054 41.6304 13.3432 41.2176 12.8554C40.7299 12.3676 40.3984 12.0123 40.092 11.6922C38.8163 10.4165 37.3905 8.72812 36.6776 7.86514C34.9729 5.80151 33.1132 3.10003 32.6254 2.38714C32.3215 1.93171 32.0884 1.58737 32.0251 1.52416C31.8985 1.33436 31.9149 1.40193 31.7249 1.14896C31.4717 0.769395 31.2057 0.439086 30.7119 0.173422C30.1866 -0.126743 29.5112 -0.0141809 29.044 0.334126ZM33.1682 8.70478C32.801 8.40111 32.1116 7.99717 31.1747 7.7062C29.6172 7.21283 28.1407 7.859 26.6783 8.8331C26.1971 9.21262 25.7808 9.53084 25.5908 9.65735C25.2363 9.88506 24.9894 10.0724 24.1284 10.8188C23.8751 11.0338 23.3555 11.4294 23.1909 11.5306C21.841 12.6171 17.7443 16.5598 16.5161 17.8248C14.2662 20.1423 13.5537 21.0094 12.5364 22.1912C12.0552 22.7479 11.7548 23.1814 11.6788 23.2573C11.6028 23.3206 11.3194 23.6904 11.0788 24.0067C10.8382 24.3229 10.4803 24.8041 10.3663 24.9433C9.48001 26.006 8.29418 27.6462 8.07893 28.2028C7.74144 28.9521 7.51644 29.3642 8.00393 30.6006C8.10815 30.8649 8.26642 31.2375 8.45391 31.5747L8.8289 32.2116L9.20389 32.7736C9.33051 32.976 9.56377 33.358 9.76636 33.5604C9.94363 33.8007 9.98892 33.8824 10.1788 34.0849C10.4413 34.3647 14.1162 38.9179 16.4786 40.9411C21.766 46.4485 27.3908 50.9972 28.9282 51.2067C29.7532 51.3191 30.3157 51.9185 32.7156 50.2326C32.8929 50.0934 33.6686 49.565 34.403 49.0337C35.1374 48.5023 35.715 47.9978 35.753 47.9472C35.791 47.9092 36.0905 47.7224 36.4655 47.3477C36.8833 47.0188 37.2646 46.7118 37.3279 46.6359C37.4039 46.56 38.0467 45.9916 38.5279 45.5868C40.5528 43.8831 44.2652 40.454 47.1151 37.1196C47.3303 36.8539 47.7983 36.3129 48.1276 35.9207C48.6973 35.2882 50.2246 33.4893 50.4525 33.1857C51.4781 31.7562 52.2013 30.8234 52.2899 30.0011C52.3279 29.5078 52.3073 28.8581 51.9908 28.1876C51.7755 27.7449 51.4716 27.2135 51.307 26.9985C49.1775 23.7819 46.8497 21.3933 46.1026 20.6722C46.0013 20.571 45.582 20.1404 45.2402 19.7356C44.4152 18.8364 41.0469 15.4194 39.9219 14.3329C39.4281 13.8901 38.8263 13.3241 38.4211 12.9446C38.0159 12.5651 37.5956 12.194 37.5206 12.0816C37.4066 12.0184 36.7115 11.5471 36.395 11.2562C35.5846 10.5351 34.1203 9.36836 33.9937 9.30511C33.8037 9.1786 33.3708 8.84388 33.1682 8.70478Z" fill="#00629B"/>
<path d="M29.0032 9.13303C28.5532 9.24543 27.3908 10.2195 25.9658 11.2311C25.0283 11.943 24.9379 12.0396 24.6533 12.2427C24.3981 12.4249 24.3159 12.505 23.9784 12.7672C23.9034 12.8047 23.4909 13.1419 23.1534 13.4416C22.8159 13.7413 22.6359 13.864 22.4784 14.0411C22.3771 14.1549 21.7226 14.7222 21.2035 15.165C19.141 16.8884 15.3162 20.8972 14.1912 22.1336C13.7734 22.627 13.356 23.1802 13.1787 23.37C12.5836 24.0025 10.5986 26.4441 10.0288 27.2664C8.94138 28.5777 8.89961 29.8679 9.74796 31.2341C10.419 32.2968 13.4326 35.9022 15.2179 37.7745C15.9903 38.5715 17.2661 39.9039 17.2661 39.9297C18.4661 41.2785 23.5659 45.8118 25.2158 47.1231C28.9745 50.1103 28.5907 49.8956 30.3532 50.008C31.0656 49.8956 31.3656 49.7457 33.6905 47.9849C35.303 46.786 35.4968 46.5519 36.9529 45.3248C37.7029 44.6504 38.5712 43.9201 39.0904 43.4141C39.7653 42.8146 40.5358 42.0692 40.8903 41.7656C42.5027 40.4543 45.5026 37.1573 46.6651 35.8085C46.8677 35.5302 47.3026 35.0592 47.3401 35.0218C47.4151 34.9468 48.4733 33.6657 48.8025 33.2609C49.29 32.5865 49.965 31.9496 50.6025 30.7132C50.9443 30.0048 50.9701 28.8623 50.565 28.0906C50.1218 27.243 47.2227 23.6921 45.6526 21.9463C45.1841 21.4276 44.3699 20.6778 44.0027 20.2603C42.5466 18.6284 40.4088 16.5741 36.395 13.0572C34.1813 11.3312 32.2677 9.85997 31.4047 9.34264C30.4673 8.78066 29.8282 8.75838 29.0032 9.13303ZM31.2352 13.8901C32.6026 16.5467 33.2864 17.9383 33.375 18.1913C33.4383 18.381 33.3624 18.419 32.8432 18.419C31.8682 18.419 31.9822 18.0521 31.691 22.5937C31.615 23.7449 31.5264 24.9721 31.4757 25.3263C31.4757 25.883 31.4406 26.0329 31.5156 26.1827C31.7309 26.3598 33.7169 26.4395 33.9068 26.3004C34.0967 26.1612 34.8438 24.2383 34.8438 23.8841C34.8438 23.6564 34.7678 23.6058 34.4766 23.6058C33.9828 23.6058 33.3244 23.4666 33.3244 23.3654C33.3244 23.3148 33.5523 23.1124 33.8435 22.8973C34.1221 22.6949 34.5779 22.3534 34.8438 22.151C36.3126 21.0124 37.6167 20.0762 37.9966 19.8738C37.9966 19.8738 38.3807 19.6257 38.4271 19.6588C38.4735 19.6919 38.4651 19.7473 38.4271 19.9371C38.3891 20.1268 38.3891 20.1901 38.3891 20.1901C38.3385 20.4937 38.1992 20.9238 38.1359 21.1389C38.0726 21.3413 37.8573 22.0624 37.6547 22.7202C37.4521 23.3781 37.1483 24.4028 36.9963 24.9974C36.4139 27.1986 35.7681 29.1341 35.5908 29.248C35.5275 29.2859 34.8185 29.2227 33.9954 29.1088C33.1851 29.0076 32.2481 28.9191 31.9189 28.9191C31.3365 28.9191 31.3238 28.9191 31.2478 29.3871C31.2098 29.6528 31.1339 31.5631 31.0959 33.6251L31.0452 37.2685H31.4884C33.2611 37.2052 36.2746 36.6233 37.6167 35.9655C38.4904 35.5354 39.1488 34.8016 39.1488 34.2703C39.2754 33.7263 38.2929 33.048 37.6167 32.7143C37.5154 32.6642 37.4109 32.4911 37.0279 32.7143C36.278 33.1513 36.428 33.1513 36.0905 33.2262C35.828 33.2845 35.507 32.5245 35.1905 31.892C34.4308 30.1209 34.8885 30.2911 35.5908 30.3789C36.0973 30.4421 39.1887 31.4887 39.3154 31.6152C39.4155 31.7152 39.1654 31.7276 38.9404 31.8025C38.7154 31.8775 38.7904 31.84 38.7057 31.892C38.621 31.9439 38.9209 32.0691 39.0349 32.145C40.5416 33.0811 40.8582 33.5365 40.8582 34.5107C40.8582 34.9914 40.7949 35.2444 40.2378 35.8643C38.9589 37.1673 36.6671 38.0908 32.8179 38.5336C31.8683 38.6428 31.0423 38.7337 30.9156 38.7337C30.9156 38.7969 30.8553 40.1023 30.7793 41.7722C30.5407 47.9502 30.4282 47.9502 30.2032 48.0251C29.4907 48.1375 29.6782 47.9502 29.4752 45.3903C29.4372 44.0872 29.3612 42.0125 29.3232 40.7728L29.2282 38.6962C29.2282 38.6962 28.4782 38.6438 28.1963 38.5968C27.9144 38.5499 27.9182 38.5625 27.6898 38.5336C27.4615 38.5047 27.234 38.483 26.8542 38.4197C26.4743 38.3565 25.7779 38.23 25.2841 38.1541C24.4357 38.0023 23.9672 37.901 22.8783 37.6227C21.9413 37.3824 19.8648 36.4715 19.3457 36.0667C18.5733 35.4848 18.2567 34.9408 18.2567 34.207C18.2567 33.3848 18.548 32.8155 19.2697 32.1829C20.3459 31.2594 22.9416 30.0576 23.8659 30.0576C23.8913 30.0576 24.5497 30.3106 25.0308 30.6269C25.5247 30.9432 26.0438 31.2468 26.2084 31.3227C26.3603 31.3859 26.5503 31.5124 26.487 31.6263C26.3603 31.7655 26.2464 31.9173 25.0942 32.2841C24.0812 32.5878 23.5747 32.8787 22.9796 33.448C21.5235 34.8649 22.5365 35.9908 26.0438 36.8257C26.5376 36.9396 27.12 37.0155 27.3733 37.0787C27.6139 37.1293 27.7531 37.142 28.2596 37.2052C28.7661 37.2685 29.1333 37.2685 29.1333 37.2685V35.839C29.1206 35.0673 29.0573 33.195 28.9813 31.7022C28.9813 31.7022 28.9813 29.1088 28.8294 28.9823C28.6775 28.8558 28.1963 28.9186 28.1963 28.9186C28.1963 28.9186 26.8921 28.995 26.0691 29.1088C25.0942 29.248 24.4611 29.2986 24.4484 29.21C24.2711 28.9823 23.5621 26.6925 23.2455 25.3769C23.1442 24.9215 23.0049 24.4913 22.9543 24.3016C22.8284 23.8299 22.1439 21.6829 21.8274 20.5443C21.6121 19.178 21.5488 19.2797 22.7011 20.1395C23.1526 20.4764 23.6451 20.8859 23.6634 20.8985C23.828 21.0124 24.0179 21.1389 24.2711 21.3287C24.5244 21.5184 24.7143 21.6576 24.7776 21.7082C25.1013 21.9669 25.0435 21.9232 25.0942 21.9612C25.4107 22.2142 26.7655 23.3654 26.6895 23.454C26.6516 23.4793 26.3224 23.5425 25.9552 23.5931C25.1701 23.6817 25.1701 23.6817 25.6766 25.1618C25.9425 25.9588 26.0818 26.1739 26.3477 26.2877C26.6895 26.4142 28.247 26.3636 28.5002 26.2118C28.6775 26.098 28.6775 25.3389 28.5129 22.91C28.2849 19.7094 28.1583 18.6341 27.9811 18.5329C27.8924 18.4696 27.5759 18.419 27.272 18.419H26.7149L26.8035 18.0015C26.8541 17.7865 27.0567 17.3057 27.2467 16.9642C27.5379 16.4328 28.8927 13.8395 29.7031 12.2455C29.8297 12.0178 29.9943 11.8406 30.0703 11.8659C30.1589 11.8913 30.678 12.8021 31.2352 13.8901Z" fill="#00629B"/>
<path d="M73.08 14.7156H81.792V45.5156H73.08V14.7156ZM112.718 38.7836V45.5156H87.9902V14.7156H112.146V21.4476H96.6142V26.6396H110.298V33.1516H96.6142V38.7836H112.718ZM142.281 38.7836V45.5156H117.553V14.7156H141.709V21.4476H126.177V26.6396H139.861V33.1516H126.177V38.7836H142.281ZM171.843 38.7836V45.5156H147.115V14.7156H171.271V21.4476H155.739V26.6396H169.423V33.1516H155.739V38.7836H171.843Z" fill="#00629B"/>
<path d="M197.125 20.7156C199.442 20.7156 201.5 21.1906 203.3 22.1406C205.117 23.0906 206.525 24.3906 207.525 26.0406C208.542 27.6906 209.05 29.5323 209.05 31.5656C209.05 33.0656 208.808 34.3573 208.325 35.4406C207.858 36.5073 207.208 37.324 206.375 37.8906C205.558 38.4406 204.617 38.7156 203.55 38.7156C202.667 38.7156 201.908 38.5323 201.275 38.1656C200.642 37.799 200.175 37.2573 199.875 36.5406C199.058 37.9906 197.708 38.7156 195.825 38.7156C194.842 38.7156 193.925 38.4573 193.075 37.9406C192.225 37.4073 191.542 36.6656 191.025 35.7156C190.525 34.7656 190.275 33.674 190.275 32.4406C190.275 31.2073 190.525 30.1156 191.025 29.1656C191.525 28.2156 192.2 27.4823 193.05 26.9656C193.9 26.449 194.825 26.1906 195.825 26.1906C197.292 26.1906 198.45 26.6656 199.3 27.6156V26.3906H203.375V34.0156C203.375 34.549 203.475 34.9323 203.675 35.1656C203.875 35.399 204.142 35.5156 204.475 35.5156C205.525 35.5156 206.05 34.224 206.05 31.6406C206.05 30.0573 205.675 28.649 204.925 27.4156C204.192 26.1823 203.15 25.224 201.8 24.5406C200.45 23.8406 198.892 23.4906 197.125 23.4906C195.375 23.4906 193.817 23.8656 192.45 24.6156C191.1 25.3656 190.05 26.4073 189.3 27.7406C188.55 29.0573 188.175 30.5406 188.175 32.1906C188.175 33.874 188.542 35.3823 189.275 36.7156C190.008 38.049 191.042 39.0823 192.375 39.8156C193.725 40.5656 195.275 40.9406 197.025 40.9406C198.808 40.9406 200.467 40.574 202 39.8406L202.925 42.5156C202.175 42.8823 201.267 43.174 200.2 43.3906C199.15 43.6073 198.092 43.7156 197.025 43.7156C194.608 43.7156 192.475 43.2156 190.625 42.2156C188.792 41.2156 187.367 39.8406 186.35 38.0906C185.35 36.3406 184.85 34.374 184.85 32.1906C184.85 30.024 185.358 28.074 186.375 26.3406C187.392 24.5906 188.825 23.2156 190.675 22.2156C192.542 21.2156 194.692 20.7156 197.125 20.7156ZM196.9 35.3156C197.633 35.3156 198.225 35.0656 198.675 34.5656C199.142 34.0656 199.375 33.3573 199.375 32.4406C199.375 31.5406 199.142 30.8406 198.675 30.3406C198.225 29.8406 197.633 29.5906 196.9 29.5906C196.167 29.5906 195.575 29.8406 195.125 30.3406C194.675 30.8406 194.45 31.5406 194.45 32.4406C194.45 33.3406 194.675 34.049 195.125 34.5656C195.575 35.0656 196.167 35.3156 196.9 35.3156Z" fill="#00629B"/>
<path d="M237.38 45.9556C233.127 45.9556 229.812 44.7676 227.436 42.3916C225.06 39.9863 223.872 36.5543 223.872 32.0956V14.7156H229.592V31.8756C229.592 37.9183 232.203 40.9396 237.424 40.9396C242.616 40.9396 245.212 37.9183 245.212 31.8756V14.7156H250.844V32.0956C250.844 36.5543 249.656 39.9863 247.28 42.3916C244.933 44.7676 241.633 45.9556 237.38 45.9556ZM273.111 45.9556C270.001 45.9556 267.185 45.281 264.663 43.9316C262.169 42.553 260.204 40.661 258.767 38.2556C257.359 35.8503 256.655 33.137 256.655 30.1156C256.655 27.0943 257.373 24.381 258.811 21.9756C260.248 19.5703 262.213 17.693 264.707 16.3436C267.229 14.965 270.045 14.2756 273.155 14.2756C275.677 14.2756 277.98 14.7156 280.063 15.5956C282.145 16.4756 283.905 17.7516 285.343 19.4236L281.647 22.8996C279.417 20.4943 276.675 19.2916 273.419 19.2916C271.307 19.2916 269.415 19.761 267.743 20.6996C266.071 21.609 264.765 22.885 263.827 24.5276C262.888 26.1703 262.419 28.033 262.419 30.1156C262.419 32.1983 262.888 34.061 263.827 35.7036C264.765 37.3463 266.071 38.637 267.743 39.5756C269.415 40.485 271.307 40.9396 273.419 40.9396C276.675 40.9396 279.417 39.7223 281.647 37.2876L285.343 40.8076C283.905 42.4796 282.131 43.7556 280.019 44.6356C277.936 45.5156 275.633 45.9556 273.111 45.9556ZM300.2 45.9556C297.824 45.9556 295.521 45.6183 293.292 44.9436C291.092 44.269 289.346 43.3743 288.056 42.2596L290.036 37.8156C291.297 38.813 292.837 39.6343 294.656 40.2796C296.504 40.8956 298.352 41.2036 300.2 41.2036C302.488 41.2036 304.189 40.837 305.304 40.1036C306.448 39.3703 307.02 38.4023 307.02 37.1996C307.02 36.3196 306.697 35.601 306.052 35.0436C305.436 34.457 304.644 34.0023 303.676 33.6796C302.708 33.357 301.388 32.9903 299.716 32.5796C297.369 32.0223 295.462 31.465 293.996 30.9076C292.558 30.3503 291.312 29.485 290.256 28.3116C289.229 27.109 288.716 25.4956 288.716 23.4716C288.716 21.7703 289.17 20.2303 290.08 18.8516C291.018 17.4436 292.412 16.329 294.26 15.5076C296.137 14.6863 298.425 14.2756 301.124 14.2756C303.001 14.2756 304.849 14.5103 306.668 14.9796C308.486 15.449 310.056 16.1236 311.376 17.0036L309.572 21.4476C308.222 20.6556 306.814 20.0543 305.348 19.6436C303.881 19.233 302.458 19.0276 301.08 19.0276C298.821 19.0276 297.134 19.409 296.02 20.1716C294.934 20.9343 294.392 21.9463 294.392 23.2076C294.392 24.0876 294.7 24.8063 295.316 25.3636C295.961 25.921 296.768 26.361 297.736 26.6836C298.704 27.0063 300.024 27.373 301.696 27.7836C303.984 28.3116 305.861 28.869 307.328 29.4556C308.794 30.013 310.041 30.8783 311.068 32.0516C312.124 33.225 312.652 34.809 312.652 36.8036C312.652 38.505 312.182 40.045 311.244 41.4236C310.334 42.8023 308.941 43.9023 307.064 44.7236C305.186 45.545 302.898 45.9556 300.2 45.9556ZM318.324 14.7156H331.788C335.073 14.7156 337.992 15.361 340.544 16.6516C343.096 17.913 345.076 19.717 346.484 22.0636C347.892 24.381 348.596 27.065 348.596 30.1156C348.596 33.1663 347.892 35.865 346.484 38.2116C345.076 40.529 343.096 42.333 340.544 43.6236C337.992 44.885 335.073 45.5156 331.788 45.5156H318.324V14.7156ZM331.524 40.6756C333.782 40.6756 335.762 40.2503 337.464 39.3996C339.194 38.5196 340.514 37.2876 341.424 35.7036C342.362 34.0903 342.832 32.2276 342.832 30.1156C342.832 28.0036 342.362 26.1556 341.424 24.5716C340.514 22.9583 339.194 21.7263 337.464 20.8756C335.762 19.9956 333.782 19.5556 331.524 19.5556H324.044V40.6756H331.524Z" fill="#00629B"/>
</svg>
