<svg width="75" height="59" viewBox="0 0 75 59" fill="none" xmlns="http://www.w3.org/2000/svg">
<path d="M63.5321 4.86229C58.6773 2.59081 53.4862 0.93999 48.0591 0C47.3925 1.20503 46.6139 2.82583 46.077 4.11517C40.3078 3.24756 34.5917 3.24756 28.9286 4.11517C28.3919 2.82583 27.5955 1.20503 26.923 0C21.49 0.93999 16.293 2.59687 11.4381 4.87431C1.64576 19.6718 -1.00878 34.1018 0.31849 48.3269C6.81329 53.177 13.1075 56.1234 19.2955 58.0513C20.8234 55.9486 22.186 53.7133 23.3599 51.3575C21.1242 50.508 18.9829 49.4596 16.9596 48.2426C17.4964 47.8449 18.0214 47.4291 18.5287 47.0014C30.8694 52.7734 44.2778 52.7734 56.4711 47.0014C56.9843 47.4291 57.5092 47.8449 58.0401 48.2426C56.0109 49.4656 53.8637 50.514 51.628 51.3636C52.8019 53.7133 54.1587 55.9546 55.6924 58.0573C61.8864 56.1293 68.1864 53.1831 74.6812 48.3269C76.2386 31.8364 72.0208 17.5389 63.5321 4.86229ZM25.0412 39.5786C21.3366 39.5786 18.2986 36.1202 18.2986 31.9087C18.2986 27.6972 21.2718 24.2328 25.0412 24.2328C28.8107 24.2328 31.8486 27.6911 31.7838 31.9087C31.7896 36.1202 28.8107 39.5786 25.0412 39.5786ZM49.9586 39.5786C46.254 39.5786 43.216 36.1202 43.216 31.9087C43.216 27.6972 46.189 24.2328 49.9586 24.2328C53.728 24.2328 56.766 27.6911 56.7011 31.9087C56.7011 36.1202 53.728 39.5786 49.9586 39.5786Z" fill="white"/>
</svg>
