<svg width="75" height="57" viewBox="0 0 75 57" fill="none" xmlns="http://www.w3.org/2000/svg">
<path d="M73.5792 19.1192C74.1504 18.665 75 19.0898 75 19.8076V49.7635C75 53.6455 71.8506 56.7949 67.9686 56.7949H7.03125C3.1494 56.7949 0 53.6455 0 49.7635V19.8223C0 19.0898 0.83496 18.6797 1.4209 19.1338C4.70214 21.6826 9.05274 24.9199 23.9942 35.7745C27.085 38.0302 32.2998 42.7762 37.5 42.7471C42.7296 42.7909 48.0468 37.9423 51.0204 35.7745C65.9619 24.9199 70.2978 21.668 73.5792 19.1192ZM37.5 38.0449C40.8984 38.1034 45.7911 33.7675 48.252 31.9804C67.6905 17.874 69.1698 16.6436 73.6524 13.1279C74.502 12.4688 75 11.4434 75 10.3594V7.57617C75 3.69432 71.8506 0.544922 67.9686 0.544922H7.03125C3.1494 0.544922 0 3.69432 0 7.57617V10.3594C0 11.4434 0.498048 12.4541 1.34766 13.1279C5.83008 16.6289 7.30956 17.874 26.7481 31.9804C29.209 33.7675 34.1016 38.1034 37.5 38.0449Z" fill="#00629B"/>
</svg>
