<svg width="75" height="76" viewBox="0 0 75 76" fill="none" xmlns="http://www.w3.org/2000/svg">
<g clip-path="url(#clip0_105_99)">
<path d="M37.4999 7.30182C47.5129 7.30182 48.6988 7.33992 52.6531 7.52034C56.3093 7.6872 58.2949 8.29811 59.6164 8.81152C61.3667 9.49179 62.616 10.3045 63.9282 11.6167C65.2404 12.9289 66.0531 14.1782 66.7333 15.9285C67.2468 17.25 67.8577 19.2356 68.0246 22.8917C68.205 26.8461 68.2431 28.032 68.2431 38.045C68.2431 48.058 68.205 49.2439 68.0246 53.1981C67.8577 56.8544 67.2468 58.84 66.7333 60.1615C66.0531 61.9118 65.2404 63.1611 63.9282 64.4733C62.616 65.7854 61.3667 66.5982 59.6164 67.2783C58.2949 67.7919 56.3093 68.4028 52.6531 68.5697C48.6994 68.7501 47.5135 68.7882 37.4999 68.7882C27.4864 68.7882 26.3004 68.7501 22.3468 68.5697C18.6906 68.4028 16.705 67.7919 15.3836 67.2783C13.6332 66.5982 12.3838 65.7854 11.0716 64.4733C9.75948 63.1611 8.94672 61.9118 8.2666 60.1615C7.75304 58.84 7.14213 56.8544 6.97527 53.1983C6.79485 49.2439 6.75674 48.058 6.75674 38.045C6.75674 28.032 6.79485 26.8461 6.97527 22.8919C7.14213 19.2356 7.75304 17.25 8.2666 15.9285C8.94672 14.1782 9.75948 12.9289 11.0716 11.6167C12.3838 10.3045 13.6332 9.49179 15.3836 8.81152C16.705 8.29811 18.6906 7.6872 22.3466 7.52034C26.301 7.33992 27.4869 7.30182 37.4999 7.30182ZM37.4999 0.544922C27.3155 0.544922 26.0386 0.58809 22.0388 0.770588C18.0472 0.952789 15.3214 1.58662 12.9359 2.5137C10.47 3.47204 8.37868 4.75429 6.29395 6.83902C4.20921 8.92376 2.92696 11.015 1.96863 13.481C1.04155 15.8664 0.407718 18.5923 0.225518 22.5839C0.0430195 26.5835 0 27.8605 0 38.045C0 48.2295 0.0430195 49.5065 0.225518 53.5061C0.407718 57.4977 1.04155 60.2236 1.96863 62.609C2.92696 65.0748 4.20921 67.1662 6.29395 69.251C8.37868 71.3357 10.47 72.618 12.9359 73.5763C15.3214 74.5034 18.0472 75.1372 22.0388 75.3194C26.0386 75.5019 27.3155 75.5449 37.4999 75.5449C47.6844 75.5449 48.9614 75.5019 52.9611 75.3194C56.9526 75.1372 59.6785 74.5034 62.0639 73.5763C64.5299 72.618 66.6212 71.3357 68.7059 69.251C70.7906 67.1662 72.0729 65.075 73.0312 62.609C73.9583 60.2236 74.5921 57.4977 74.7743 53.5061C74.9568 49.5065 75 48.2295 75 38.045C75 27.8605 74.9568 26.5835 74.7743 22.5839C74.5921 18.5923 73.9583 15.8664 73.0312 13.481C72.0729 11.015 70.7906 8.92376 68.7059 6.83902C66.6212 4.75429 64.5299 3.47204 62.0639 2.5137C59.6785 1.58662 56.9526 0.952789 52.9611 0.770588C48.9614 0.58809 47.6844 0.544922 37.4999 0.544922ZM37.4999 18.7882C26.8647 18.7882 18.2431 27.4098 18.2431 38.045C18.2431 48.6802 26.8647 57.3018 37.4999 57.3018C48.1351 57.3018 56.7567 48.6802 56.7567 38.045C56.7567 27.4098 48.1351 18.7882 37.4999 18.7882ZM37.4999 50.5451C30.5964 50.5451 24.9999 44.9485 24.9999 38.045C24.9999 31.1415 30.5964 25.5449 37.4999 25.5449C44.4034 25.5449 50 31.1415 50 38.045C50 44.9485 44.4034 50.5451 37.4999 50.5451ZM62.0175 18.0274C62.0175 20.5127 60.0029 22.5275 57.5175 22.5275C55.0322 22.5275 53.0175 20.5127 53.0175 18.0274C53.0175 15.5421 55.0322 13.5274 57.5175 13.5274C60.0029 13.5274 62.0175 15.5421 62.0175 18.0274Z" fill="#00629B"/>
</g>
<defs>
<clipPath id="clip0_105_99">
<rect width="75" height="75" fill="white" transform="translate(0 0.544922)"/>
</clipPath>
</defs>
</svg>
