<svg xmlns="http://www.w3.org/2000/svg" version="1.0" width="50" height="50" viewBox="0 0 686.000000 980.000000" preserveAspectRatio="xMidYMid meet">
<g transform="translate(0.000000,980.000000) scale(0.100000,-0.100000)" fill="#ffcd00" stroke="none">
<path d="M3165 9789 c-1198 -112 -2212 -925 -2580 -2069 -229 -712 -174 -1510 149 -2185 57 -119 236 -412 830 -1363 416 -666 759 -1218 762 -1227 4 -8 1 -15 -5 -15 -6 0 -77 -9 -159 -21 -666 -93 -1240 -295 -1645 -579 -112 -78 -298 -261 -356 -350 -108 -167 -151 -304 -151 -490 0 -147 24 -252 89 -385 274 -560 1193 -947 2536 -1069 1128 -103 2353 22 3135 321 577 219 923 509 1042 873 39 121 50 309 25 432 -86 412 -466 750 -1109 984 -210 76 -564 172 -579 157 -4 -5 -123 -192 -263 -418 -176 -281 -252 -411 -244 -416 7 -3 54 -14 103 -23 417 -79 911 -259 1108 -404 l61 -45 -41 -36 c-127 -113 -434 -244 -785 -336 -789 -206 -1864 -248 -2783 -109 -563 85 -1081 258 -1306 436 l-53 41 40 35 c158 137 597 304 1054 401 227 48 734 119 765 107 6 -2 148 -227 315 -500 167 -273 306 -496 309 -496 3 0 597 981 1319 2180 838 1391 1337 2229 1378 2314 100 209 186 466 233 701 76 376 74 793 -4 1181 -90 445 -309 908 -602 1273 -106 132 -346 369 -473 467 -445 344 -917 544 -1461 619 -138 19 -516 27 -654 14z m567 -1402 c473 -124 811 -463 935 -935 34 -130 43 -372 19 -509 -94 -539 -517 -962 -1049 -1048 -319 -52 -646 21 -922 204 -93 61 -248 212 -317 308 -276 384 -315 890 -103 1316 121 242 343 459 590 577 192 91 338 121 575 116 148 -3 190 -7 272 -29z"/>
</g>
</svg>